<svg height="512pt" viewBox="-50 0 512 512" width="512pt" xmlns="http://www.w3.org/2000/svg"><path d="m408.414062 50.675781-11.699218-50.675781-92.164063 81.988281 15.257813 130.121094 57.582031-56c27.890625-27.125 39.78125-67.523437 31.023437-105.433594zm0 0" fill="#cccbd0"/><path d="m408.414062 50.675781-11.699218-50.675781-92.164063 81.988281 15.257813 130.121094 57.582031-56c27.890625-27.125 39.78125-67.523437 31.023437-105.433594zm0 0" fill="#bebdc2"/><path d="m14.53125 0-11.699219 50.675781c-8.757812 37.910157 3.132813 78.308594 31.023438 105.433594l57.582031 56 15.257812-130.121094zm0 0" fill="#cccbd0"/><path d="m314.652344 73h-218.058594l-60.035156 349.457031 80.585937 89.542969h176.957031l80.585938-89.542969zm0 0" fill="#dcdcdc"/><path d="m374.6875 422.457031-60.035156-349.457031h-109.03125v439h88.480468zm0 0" fill="#cccbd0"/><path d="m205.621094 161.570312-70.277344 168.53125 26.640625 58.269532h87.277344l26.640625-58.269532zm0 0" fill="#efefef"/><path d="m232.898438 439.601562 20.011718-31.816406 25.398438 15.972656-20.011719 31.816407zm0 0" fill="#cccbd0"/><path d="m131.769531 423.75 25.398438-15.976562 20.011719 31.816406-25.402344 15.976562zm0 0" fill="#cccbd0"/><path d="m279.121094 262.199219h30.003906v30.695312h-30.003906zm0 0" fill="#1d2951"/><path d="m102.121094 262.199219h30.003906v30.695312h-30.003906zm0 0" fill="#1d2951"/><path d="m232.898438 439.601562 20.011718-31.816406 25.398438 15.972656-20.011719 31.816407zm0 0" fill="#bebdc2"/><path d="m279.121094 262.199219h30.003906v30.695312h-30.003906zm0 0" fill="#121d3c"/><path d="m275.902344 330.101562-70.28125-168.53125v226.800782h43.640625zm0 0" fill="#dcdcdc"/></svg>